PathFileType	4	(X/Y/Z)	/Users/itak/Documents/Research/Walk-IL/dataset/trc/00547_00009.trc
DataRate	CameraRate	NumFrames	NumMarkers	Units	OrigDataRate	OrigDataStartFrame	OrigNumFrames
100.000000	100.000000	4	53	mm	100.000000	202	541
Frame#	Time	RPSI			LPSI			L3			STRN			T10			C7			CLAV			RBAK			LBAK			LSHO			LUPA			LAEL			LAOL			LWTS			LWPS			LFRA			LIFD			LHPS			LHTS			RSHO			RUPA			RAEL			RAOL			RWTS			RWPS			RFRA			RIFD			RHTS			RHPS			RBHD			LFHD			RFHD			LBHD			LHIP			RHIP			RASI			LASI			LKNE			LTHI			LANK			LTIP			LTOE			LMT1			LMT5			LHEE			RKNE			RTHI			RANK			RTIP			RTOE			RMT1			RMT5			RHEE			
		X1	Y1	Z1	X2	Y2	Z2	X3	Y3	Z3	X4	Y4	Z4	X5	Y5	Z5	X6	Y6	Z6	X7	Y7	Z7	X8	Y8	Z8	X9	Y9	Z9	X10	Y10	Z10	X11	Y11	Z11	X12	Y12	Z12	X13	Y13	Z13	X14	Y14	Z14	X15	Y15	Z15	X16	Y16	Z16	X17	Y17	Z17	X18	Y18	Z18	X19	Y19	Z19	X20	Y20	Z20	X21	Y21	Z21	X22	Y22	Z22	X23	Y23	Z23	X24	Y24	Z24	X25	Y25	Z25	X26	Y26	Z26	X27	Y27	Z27	X28	Y28	Z28	X29	Y29	Z29	X30	Y30	Z30	X31	Y31	Z31	X32	Y32	Z32	X33	Y33	Z33	X34	Y34	Z34	X35	Y35	Z35	X36	Y36	Z36	X37	Y37	Z37	X38	Y38	Z38	X39	Y39	Z39	X40	Y40	Z40	X41	Y41	Z41	X42	Y42	Z42	X43	Y43	Z43	X44	Y44	Z44	X45	Y45	Z45	X46	Y46	Z46	X47	Y47	Z47	X48	Y48	Z48	X49	Y49	Z49	X50	Y50	Z50	X51	Y51	Z51	X52	Y52	Z52	X53	Y53	Z53	

203	2.02	-571.384765625	1005.590148925781	349.94677734375	-573.8133544921875	1001.794799804688	216.3899383544922	-565.2911376953125	1105.825317382812	275.3800659179688	-322.5126647949219	1282.253784179688	264.6846313476562	-567.3453369140625	1230.363403320312	273.514404296875	-506.2501220703125	1500.676513671875	292.7303161621094	-335.960693359375	1394.299926757812	270.7200317382812	-577.9201049804688	1376.013916015625	378.5845031738281	-545.2915649414062	1453.654663085938	200.8402099609375	-448.1261291503906	1479.641479492188	117.1880798339844	-469.9555053710938	1359.959106445312	29.41964149475098	-468.4081726074219	1138.9052734375	-2.264984846115112	-557.529296875	1135.405517578125	46.85033416748047	-384.7549438476562	893.2168579101562	42.93812942504883	-427.5746154785156	872.140869140625	-30.8690128326416	-448.7804565429688	1052.3115234375	-10.85233020782471	-387.133056640625	723.9013671875	36.26219940185547	-417.9916381835938	812.5965576171875	-23.40957450866699	-366.4122009277344	817.3259887695312	21.79119873046875	-440.720703125	1455.739013671875	442.6892395019531	-459.072509765625	1392.236083984375	510.8085632324219	-472.8504333496094	1104.046264648438	558.9557495117188	-529.3326416015625	1087.474853515625	534.2626953125	-344.291259765625	882.985595703125	512.1204223632812	-385.2832946777344	862.1422729492188	580.1538696289062	-462.5457458496094	1048.425170898438	566.2322387695312	-330.4644470214844	710.3624877929688	515.238037109375	-313.6486206054688	792.39208984375	525.5104370117188	-367.6552429199219	788.2279663085938	576.9083862304688	-427.4163208007812	1671.954223632812	361.852294921875	-279.3552551269531	1702.87548828125	219.0589752197266	-288.6315307617188	1694.466430664062	362.8627014160156	-409.4710693359375	1679.751220703125	197.0682220458984	-451.4056701660156	922.09521484375	82.93503570556641	-437.288818359375	939.9124145507812	465.9641418457031	-355.2911376953125	970.658447265625	401.7781372070312	-370.4615783691406	951.026611328125	126.99853515625	-369.4627685546875	476.2384033203125	100.2511672973633	-388.5130004882812	647.4347534179688	83.89146423339844	-768.2259521484375	191.7396240234375	111.7136764526367	-584.0245361328125	333.3262023925781	100.9832077026367	-616.3319702148438	48.63694000244141	148.7997894287109	-661.6715087890625	97.40243530273438	191.6713714599609	-693.722900390625	101.3184356689453	90.45621490478516	-800.6447143554688	245.9542846679688	170.0476837158203	-353.20703125	500.2759704589844	392.6995544433594	-381.4957580566406	787.4334106445312	455.3927001953125	-437.5651245117188	35.24860382080078	351.3515014648438	-349.7070617675781	354.8371887207031	371.34375	-217.4815673828125	41.50577545166016	310.3795166015625	-281.025146484375	41.87785339355469	268.8863525390625	-304.81591796875	38.10263824462891	371.5997924804688	-491.8760375976562	30.29717254638672	294.9917297363281	
204	2.03	-565.6190185546875	1005.907958984375	350.7298583984375	-567.9349975585938	1002.176513671875	217.1845092773438	-559.5248413085938	1106.56494140625	276.8041381835938	-316.3982849121094	1282.798583984375	265.4952392578125	-561.1878662109375	1231.014526367188	275.2001647949219	-499.7720642089844	1501.245727539062	294.6183471679688	-329.6991577148438	1394.805786132812	271.5623168945312	-571.1431884765625	1376.614501953125	380.7744750976562	-539.3381958007812	1454.342407226562	202.9357757568359	-442.6574401855469	1480.329711914062	118.7584915161133	-465.2908020019531	1360.808837890625	30.96488952636719	-464.3331298828125	1139.901733398438	-1.183584451675415	-552.9182739257812	1136.279052734375	48.90702438354492	-379.9215393066406	894.2764892578125	42.70112609863281	-423.3598937988281	873.2623901367188	-30.65443229675293	-444.7102661132812	1053.382446289062	-10.13142681121826	-381.9664916992188	725.0360107421875	35.62421798706055	-413.6898803710938	813.757568359375	-23.46480751037598	-361.5038452148438	818.5154418945312	21.1711483001709	-433.4299011230469	1456.0986328125	444.1556396484375	-451.1682434082031	1392.597412109375	512.4553833007812	-463.29150390625	1104.158569335938	560.376953125	-519.7651977539062	1087.415405273438	536.341796875	-333.8582153320312	883.90380859375	512.7391357421875	-374.2079467773438	862.8780517578125	581.0289306640625	-452.4884948730469	1048.574096679688	567.5339965820312	-318.9888305664062	711.3805541992188	515.8107299804688	-302.4684753417969	793.5311279296875	526.009033203125	-356.1618041992188	789.0767211914062	577.7286987304688	-420.58056640625	1672.415649414062	363.279052734375	-272.6054077148438	1703.173950195312	220.3692779541016	-281.7789611816406	1694.72216796875	364.1919860839844	-402.7619934082031	1680.242431640625	198.4884033203125	-444.5911865234375	923.1009521484375	83.83415222167969	-431.998046875	939.9313354492188	467.1024780273438	-349.6684265136719	970.9677124023438	403.3968505859375	-364.2566223144531	952.2176513671875	128.5133514404297	-354.6432189941406	478.5863952636719	101.2118377685547	-376.9835815429688	649.3529663085938	84.54256439208984	-750.964111328125	191.1022033691406	112.0388946533203	-568.061279296875	334.3809814453125	101.6235580444336	-595.7821044921875	50.7379035949707	145.2397003173828	-641.7955322265625	97.48429870605469	189.3520050048828	-674.4759521484375	103.057975769043	88.34290313720703	-784.0767211914062	243.5378570556641	171.6764526367188	-351.1296081542969	499.7887268066406	393.3971862792969	-377.0325927734375	787.1865844726562	456.2813720703125	-437.66455078125	35.23835372924805	351.4139099121094	-348.4731750488281	354.4299011230469	371.8253173828125	-217.5224761962891	41.53092193603516	310.3703308105469	-281.0656433105469	41.87462615966797	268.8818359375	-304.8677673339844	38.08266067504883	371.6089172363281	-492.0436096191406	30.32020378112793	295.1111450195312	
205	2.04	-559.898193359375	1006.20849609375	351.3891906738281	-562.041015625	1002.608825683594	217.8307952880859	-553.7719116210938	1107.276123046875	278.1463012695312	-310.3069152832031	1283.366577148438	266.3049926757812	-555.101318359375	1231.653076171875	276.8562316894531	-493.3333435058594	1501.794311523438	296.4612731933594	-323.4798278808594	1395.318481445312	272.373046875	-564.3974609375	1377.202758789062	382.9382019042969	-533.4207153320312	1454.996704101562	204.9896545410156	-437.2496643066406	1481.00537109375	120.3052520751953	-460.6655883789062	1361.640380859375	32.50154876708984	-460.2956848144531	1140.884887695312	-0.08459409326314926	-548.2945556640625	1137.128295898438	51.02653121948242	-375.0838928222656	895.3107299804688	42.45899200439453	-419.2002258300781	874.362548828125	-30.41701126098633	-440.6709899902344	1054.426025390625	-9.377049446105957	-376.8433532714844	726.1363525390625	34.97102737426758	-409.4681701660156	814.8926391601562	-23.5085620880127	-356.6963500976562	819.6476440429688	20.55974578857422	-426.1796569824219	1456.487548828125	445.5764465332031	-443.2753601074219	1392.988891601562	514.0696411132812	-453.8132934570312	1104.355590820312	561.7176513671875	-510.2180786132812	1087.427978515625	538.2888793945312	-323.4811401367188	884.8024291992188	513.3082885742188	-363.2426147460938	863.6328735351562	581.8575439453125	-442.4462585449219	1048.797241210938	568.7366333007812	-307.6951599121094	712.3756103515625	516.3895263671875	-291.4414978027344	794.63623046875	526.4903564453125	-344.8152465820312	789.9248046875	578.5123901367188	-413.7316589355469	1672.890869140625	364.6506958007812	-265.8643798828125	1703.41845703125	221.6061096191406	-274.9192810058594	1694.938354492188	365.4342041015625	-396.0660705566406	1680.7412109375	199.84423828125	-437.7085876464844	924.1627197265625	84.64341735839844	-426.8722534179688	939.887939453125	468.1965942382812	-344.1315612792969	971.2462768554688	405.0572204589844	-358.0454711914062	953.3980712890625	130.0901336669922	-339.9827270507812	481.0561828613281	102.3949890136719	-365.5249633789062	651.3491821289062	85.27599334716797	-732.8527221679688	189.247314453125	112.3613357543945	-551.843505859375	334.8648071289062	102.3708190917969	-574.1583251953125	52.31436538696289	142.3056793212891	-620.9682006835938	96.93265533447266	187.3435516357422	-654.0552978515625	103.8609008789062	86.51544952392578	-766.91259765625	239.8659973144531	173.0500183105469	-349.1038513183594	499.3067626953125	394.0817565917969	-372.67431640625	786.9057006835938	457.1563720703125	-437.7685241699219	35.23430633544922	351.4857788085938	-347.2675170898438	354.02880859375	372.2958984375	-217.5578460693359	41.55068206787109	310.3663635253906	-281.1068725585938	41.86764144897461	268.8878479003906	-304.9180297851562	38.06006240844727	371.6302185058594	-492.1932373046875	30.36043167114258	295.2252197265625	
206	2.05	-554.2105102539062	1006.495056152344	351.9336547851562	-556.1392822265625	1003.069396972656	218.3490600585938	-548.0196533203125	1107.937744140625	279.390380859375	-304.2245483398438	1283.943115234375	267.1129760742188	-549.0899658203125	1232.27197265625	278.4844055175781	-486.9247741699219	1502.315063476562	298.2585144042969	-317.2883605957031	1395.827514648438	273.1615295410156	-557.6734619140625	1377.765747070312	385.0688781738281	-527.5303344726562	1455.61083984375	206.9977111816406	-431.8782348632812	1481.658935546875	121.8285446166992	-456.0523376464844	1362.44189453125	34.03359222412109	-456.2836608886719	1141.846923828125	1.028690934181213	-543.6552124023438	1137.94921875	53.18115234375	-370.2388305664062	896.3145141601562	42.22449111938477	-415.0978393554688	875.4267578125	-30.14984893798828	-436.6481628417969	1055.427612304688	-8.592127799987793	-371.7760925292969	727.1884155273438	34.33261489868164	-405.3201599121094	815.9859008789062	-23.52323532104492	-351.9911499023438	820.7142333984375	19.97198677062988	-418.9678955078125	1456.898315429688	446.952880859375	-435.40673828125	1393.4013671875	515.6466674804688	-444.4146423339844	1104.615478515625	562.9827880859375	-500.7216491699219	1087.49853515625	540.0762329101562	-313.1673583984375	885.6934814453125	513.831787109375	-352.4001770019531	864.4014892578125	582.6364135742188	-432.4656982421875	1049.083984375	569.8526000976562	-296.5698547363281	713.3565673828125	516.9647827148438	-280.5710754394531	795.7142944335938	526.954345703125	-333.6209411621094	790.7694091796875	579.2512817382812	-406.8792114257812	1673.37255859375	365.9679260253906	-259.1388549804688	1703.6123046875	222.7715606689453	-268.0646362304688	1695.1201171875	366.5906372070312	-389.3880004882812	1681.237426757812	201.1383209228516	-430.7854614257812	925.2425537109375	85.37908172607422	-421.8923034667969	939.8018798828125	469.2594299316406	-338.6604309082031	971.4741821289062	406.7312622070312	-351.8318481445312	954.5341186523438	131.7005615234375	-325.4679870605469	483.6116638183594	103.8033828735352	-354.1476745605469	653.3897705078125	86.10767364501953	-713.8895263671875	186.2293853759766	112.6734313964844	-535.3724975585938	334.7597351074219	103.2217788696289	-551.520263671875	53.37125015258789	140.0677947998047	-599.2406005859375	95.80259704589844	185.7195281982422	-632.5265502929688	103.73583984375	85.02824401855469	-749.1398315429688	235.0202331542969	174.1251831054688	-347.1391906738281	498.8294677734375	394.7586669921875	-368.4071655273438	786.5952758789062	458.0159912109375	-437.8644714355469	35.23307037353516	351.5546264648438	-346.0997619628906	353.6333312988281	372.7629699707031	-217.5863494873047	41.56378555297852	310.3699645996094	-281.142333984375	41.86016082763672	268.9028015136719	-304.9623107910156	38.03413772583008	371.6630554199219	-492.2969360351562	30.40639305114746	295.3076171875	
